<svg width="14.000000" height="14.000000" viewBox="0 0 14 14" fill="none" xmlns="http://www.w3.org/2000/svg" xmlns:xlink="http://www.w3.org/1999/xlink">
	<defs>
		<clipPath id="clip41399_838">
			<rect id="mdi_calendar_today" width="14.000000" height="14.000000" fill="white" fill-opacity="0"/>
		</clipPath>
	</defs>
	<rect id="mdi_calendar_today" width="14.000000" height="14.000000" fill="#FFFFFF" fill-opacity="0"/>
	<g clip-path="url(#clip41399_838)">
		<path id="Vector" d="M11.66 1.75L11.08 1.75L11.08 0.58L9.91 0.58L9.91 1.75L4.08 1.75L4.08 0.58L2.91 0.58L2.91 1.75L2.33 1.75C1.69 1.75 1.16 2.27 1.16 2.91L1.16 12.25C1.16 12.89 1.69 13.41 2.33 13.41L11.66 13.41C12.3 13.41 12.83 12.89 12.83 12.25L12.83 2.91C12.83 2.27 12.3 1.75 11.66 1.75ZM11.66 12.25L2.33 12.25L2.33 4.66L11.66 4.66L11.66 12.25Z" fill="#999999" fill-opacity="1.000000" fill-rule="nonzero"/>
	</g>
</svg>
