<svg width="190.250732" height="30.700012" viewBox="0 0 190.251 30.7" fill="none" xmlns="http://www.w3.org/2000/svg" xmlns:xlink="http://www.w3.org/1999/xlink">
	<defs/>
	<path id="High pass" d="M65.48 5.2C65.48 4.48 65.75 3.88 66.29 3.4Q66.53 3.17 66.82 3.01Q67.47 2.65 68.33 2.65C69.15 2.65 69.83 2.9 70.37 3.4Q70.78 3.76 70.98 4.21Q71.18 4.66 71.18 5.2Q71.18 5.64 71.04 6.03Q70.84 6.56 70.37 7Q70.13 7.22 69.85 7.38Q69.19 7.75 68.33 7.75Q67.47 7.75 66.82 7.38L66.82 7.38Q66.53 7.22 66.29 7C65.75 6.5 65.48 5.9 65.48 5.2ZM43 25L43 4L48.55 4L48.55 11.8L56.65 11.8L56.65 4L62.2 4L62.2 25L56.65 25L56.65 16.9L48.55 16.9L48.55 25L43 25ZM93.38 25L93.38 4L98.48 4L98.48 11.5L98.78 11.5C99.06 11.02 99.42 10.6 99.86 10.24Q100.56 9.64 101.37 9.32Q102.32 8.95 103.43 8.95Q105.59 8.95 106.99 9.98Q107.38 10.26 107.72 10.63C108.76 11.73 109.28 13.32 109.28 15.4L109.28 25L104.18 25L104.18 16.15C104.18 15.25 103.94 14.55 103.46 14.05Q103.31 13.89 103.14 13.77L103.14 13.77Q102.48 13.3 101.48 13.3Q100.84 13.3 100.3 13.53Q99.76 13.77 99.32 14.26C98.76 14.88 98.48 15.71 98.48 16.75L98.48 25L93.38 25ZM75.45 22.63C74.11 21.15 73.44 19.24 73.44 16.9Q73.44 14.11 74.71 12.14Q75.03 11.62 75.45 11.17C76.79 9.68 78.42 8.95 80.34 8.95C81.72 8.95 82.91 9.35 83.91 10.14Q84.6 10.69 84.99 11.35L85.29 11.35L85.29 9.4L90.39 9.4L90.39 30.7L75.54 30.7L75.54 26.65L85.29 26.65L85.29 22.6L84.99 22.6C84.71 23.04 84.35 23.42 83.91 23.74Q83.63 23.94 83.33 24.11Q82.04 24.85 80.34 24.85C78.42 24.85 76.79 24.11 75.45 22.63ZM120.53 30.7L120.53 9.4L125.63 9.4L125.63 11.5L125.93 11.5C126.21 11.04 126.59 10.62 127.07 10.24C128.17 9.38 129.34 8.95 130.58 8.95C132.5 8.95 134.13 9.71 135.47 11.23Q135.71 11.49 135.92 11.78L135.92 11.78Q137.48 13.91 137.48 17.2Q137.48 20.45 135.94 22.61Q135.72 22.91 135.47 23.2C134.13 24.7 132.5 25.45 130.58 25.45C129.32 25.45 128.15 25.03 127.07 24.19C126.59 23.81 126.21 23.38 125.93 22.9L125.63 22.9L125.63 30.7L120.53 30.7ZM141.28 23.2C139.94 21.68 139.27 19.68 139.27 17.2C139.27 14.72 139.94 12.73 141.28 11.23C142.62 9.71 144.25 8.95 146.17 8.95Q146.59 8.95 147.01 9.01L147.01 9.01Q148.41 9.24 149.68 10.24C150.14 10.62 150.52 11.04 150.82 11.5L151.12 11.5L151.12 9.4L156.22 9.4L156.22 25L151.12 25L151.12 22.9L150.82 22.9C150.54 23.38 150.16 23.81 149.68 24.19C148.6 25.03 147.43 25.45 146.17 25.45C144.25 25.45 142.62 24.7 141.28 23.2ZM158.31 19.9L163.41 19.9C163.49 20.2 163.66 20.48 163.92 20.74C164.46 21.28 165.24 21.55 166.26 21.55C167.66 21.55 168.36 21.2 168.36 20.5C168.36 20.18 168.16 19.93 167.76 19.75C167.36 19.54 166.76 19.35 165.96 19.15C165.3 18.99 164.87 18.89 164.67 18.85C164.47 18.81 164.05 18.7 163.41 18.52Q162.45 18.21 162.03 18.01C161.77 17.85 161.39 17.62 160.92 17.35C160.46 17.04 160.12 16.75 159.89 16.45C159.7 16.12 159.5 15.74 159.33 15.28C159.14 14.8 159.06 14.29 159.06 13.75C159.06 12.43 159.64 11.3 160.83 10.36C162 9.42 163.67 8.95 165.81 8.95C168.49 8.95 170.61 9.83 172.17 11.59C172.79 12.35 173.22 13.22 173.46 14.2L168.51 14.2C168.39 13.88 168.25 13.63 168.09 13.45C167.63 12.95 166.97 12.7 166.11 12.7C164.91 12.7 164.31 13.05 164.31 13.75C164.31 14.09 164.51 14.35 164.91 14.53C165.31 14.71 165.92 14.88 166.74 15.04Q169.83 15.76 170.91 16.29C172.71 17.18 173.61 18.53 173.61 20.35Q173.61 21.12 173.36 21.8Q172.92 23.03 171.69 23.98C170.43 24.96 168.62 25.45 166.26 25.45C163.36 25.45 161.14 24.53 159.63 22.69C158.95 21.87 158.5 20.94 158.31 19.9ZM174.95 19.9L180.05 19.9C180.13 20.2 180.3 20.48 180.56 20.74C181.1 21.28 181.88 21.55 182.9 21.55C184.3 21.55 185 21.2 185 20.5Q185 20.38 184.96 20.27Q184.85 19.95 184.4 19.75C184 19.54 183.4 19.35 182.6 19.15C181.94 18.99 181.51 18.89 181.31 18.85C181.11 18.81 180.69 18.7 180.05 18.52C179.41 18.32 178.95 18.15 178.67 18.01C178.41 17.85 178.04 17.62 177.56 17.35C177.1 17.04 176.76 16.75 176.54 16.45C176.34 16.12 176.15 15.74 175.97 15.28Q175.94 15.21 175.92 15.13L175.92 15.13Q175.7 14.47 175.7 13.75C175.7 12.43 176.29 11.3 177.47 10.36C178.65 9.42 180.31 8.95 182.45 8.95C185.13 8.95 187.25 9.83 188.81 11.59C189.43 12.35 189.86 13.22 190.1 14.2L185.15 14.2Q184.97 13.72 184.73 13.45Q184.62 13.32 184.49 13.22Q183.83 12.7 182.75 12.7C181.55 12.7 180.95 13.05 180.95 13.75Q180.95 13.89 181 14.02Q181.12 14.33 181.55 14.53C181.95 14.71 182.56 14.88 183.38 15.04Q186.47 15.76 187.55 16.29C189.35 17.18 190.25 18.53 190.25 20.35Q190.25 21.12 190 21.8Q189.56 23.03 188.33 23.98C187.07 24.96 185.26 25.45 182.9 25.45C180 25.45 177.79 24.53 176.27 22.69C175.59 21.87 175.15 20.94 174.95 19.9ZM65.78 25L65.78 9.4L70.88 9.4L70.88 25L65.78 25ZM79.59 14.26Q79.51 14.34 79.44 14.43Q78.69 15.37 78.69 16.9Q78.69 18.42 79.44 19.36Q79.51 19.45 79.59 19.54C80.19 20.18 80.99 20.5 81.99 20.5C82.99 20.5 83.79 20.18 84.39 19.54C84.99 18.9 85.29 18.02 85.29 16.9C85.29 15.78 84.99 14.9 84.39 14.26Q84.12 13.97 83.8 13.77L83.8 13.77Q83.04 13.3 81.99 13.3C80.99 13.3 80.19 13.62 79.59 14.26ZM126.53 14.32C125.93 15 125.63 15.96 125.63 17.2C125.63 18.44 125.93 19.4 126.53 20.08C127.13 20.76 127.93 21.1 128.93 21.1C129.93 21.1 130.73 20.76 131.33 20.08C131.93 19.4 132.23 18.44 132.23 17.2C132.23 15.96 131.93 15 131.33 14.32C130.73 13.64 129.93 13.3 128.93 13.3C127.93 13.3 127.13 13.64 126.53 14.32ZM145.42 14.32C144.82 15 144.52 15.96 144.52 17.2C144.52 18.44 144.82 19.4 145.42 20.08C146.02 20.76 146.82 21.1 147.82 21.1C148.82 21.1 149.62 20.76 150.22 20.08C150.82 19.4 151.12 18.44 151.12 17.2C151.12 15.96 150.82 15 150.22 14.32C149.62 13.64 148.82 13.3 147.82 13.3C146.82 13.3 146.02 13.64 145.42 14.32Z" fill="#FFFFFF" fill-opacity="1.000000" fill-rule="evenodd"/>
	<path id="Rectangle 5 (Stroke)" d="M6 6L6 24L24 24L6 6ZM0 0L0 30L30 30L30 0L0 0Z" fill="#FF6E30" fill-opacity="1.000000" fill-rule="evenodd"/>
</svg>
