<svg width="22.000000" height="22.000000" viewBox="0 0 22 22" fill="none" xmlns="http://www.w3.org/2000/svg" xmlns:xlink="http://www.w3.org/1999/xlink">
	<defs>
		<clipPath id="clip41399_819">
			<rect id="mdi_call" width="22.000000" height="22.000000" fill="white" fill-opacity="0"/>
		</clipPath>
	</defs>
	<rect id="mdi_call" width="22.000000" height="22.000000" fill="#FF6E30" fill-opacity="0"/>
	<g clip-path="url(#clip41399_819)">
		<path id="Vector" d="M18.34 14.09C17.21 14.09 16.12 13.91 15.1 13.58C14.78 13.47 14.42 13.55 14.18 13.8L12.74 15.61C10.14 14.37 7.71 12.03 6.42 9.35L8.21 7.82C8.46 7.57 8.53 7.21 8.43 6.89C8.09 5.87 7.91 4.78 7.91 3.65C7.91 3.16 7.5 2.75 7.01 2.75L3.84 2.75C3.34 2.75 2.75 2.96 2.75 3.65C2.75 12.17 9.83 19.25 18.34 19.25C18.99 19.25 19.25 18.67 19.25 18.16L19.25 15C19.25 14.51 18.83 14.09 18.34 14.09Z" fill="#FF6E30" fill-opacity="1.000000" fill-rule="nonzero"/>
	</g>
</svg>
