<svg width="25.000000" height="25.000000" viewBox="0 0 25 25" fill="none" xmlns="http://www.w3.org/2000/svg" xmlns:xlink="http://www.w3.org/1999/xlink">
	<desc>
			Created with Pixso.
	</desc>
	<defs/>
	<path d="M24.91 22.81L19.85 18.35C21.34 16.37 22.14 13.95 22.14 11.4C22.14 8.35 20.99 5.49 18.9 3.34C16.81 1.18 14.02 0 11.07 0C8.11 0 5.33 1.19 3.24 3.34C1.15 5.49 0 8.35 0 11.4C0 14.45 1.15 17.31 3.24 19.47C5.33 21.62 8.11 22.81 11.07 22.81C13.54 22.81 15.89 21.98 17.81 20.45L22.87 24.9C22.9 24.93 22.93 24.96 22.97 24.97C23 24.99 23.04 25 23.08 25C23.12 25 23.16 24.99 23.2 24.97C23.24 24.96 23.27 24.93 23.3 24.9L24.91 23.25C24.93 23.22 24.96 23.19 24.97 23.15C24.99 23.11 25 23.07 25 23.03C25 22.99 24.99 22.95 24.97 22.91C24.96 22.87 24.93 22.84 24.91 22.81ZM16.91 17.42C15.35 19.03 13.28 19.92 11.07 19.92C8.86 19.92 6.79 19.03 5.22 17.42C3.66 15.81 2.8 13.68 2.8 11.4C2.8 9.13 3.66 6.99 5.22 5.38C6.79 3.77 8.86 2.88 11.07 2.88C13.28 2.88 15.35 3.77 16.91 5.38C18.48 6.99 19.34 9.13 19.34 11.4C19.34 13.68 18.48 15.82 16.91 17.42Z" fill="#FFFFFF" fill-opacity="1.000000" fill-rule="nonzero"/>
</svg>
