<svg width="30.000000" height="30.000000" viewBox="0 0 30 30" fill="none" xmlns="http://www.w3.org/2000/svg" xmlns:xlink="http://www.w3.org/1999/xlink">
	<desc>
			Created with Pixso.
	</desc>
	<defs>
		<clipPath id="clip41399_288">
			<rect id="social" width="30.000000" height="30.000000" transform="matrix(-1 0 0 1 30 0)" fill="white" fill-opacity="0"/>
		</clipPath>
	</defs>
	<rect id="social" width="30.000000" height="30.000000" transform="matrix(-1 0 0 1 30 0)" fill="#FFFFFF" fill-opacity="0"/>
	<g clip-path="url(#clip41399_288)">
		<path id="ok" d="M30 15C30 23.28 23.28 30 15 30C6.71 30 0 23.28 0 15C0 6.71 6.71 0 15 0C23.28 0 30 6.71 30 15ZM15.09 4.57C12.1 4.57 9.67 6.99 9.67 9.99C9.67 12.98 12.1 15.4 15.09 15.4C18.08 15.4 20.5 12.98 20.5 9.99C20.5 6.99 18.08 4.57 15.09 4.57ZM15.09 12.23C13.85 12.23 12.85 11.22 12.85 9.99C12.85 8.75 13.85 7.75 15.09 7.75C16.32 7.75 17.33 8.75 17.33 9.99C17.33 11.22 16.32 12.23 15.09 12.23ZM17 19.71C19.17 19.27 20.47 18.24 20.54 18.19C21.17 17.68 21.27 16.75 20.76 16.12C20.26 15.48 19.33 15.38 18.69 15.89C18.68 15.9 17.29 16.96 15.01 16.97C12.73 16.96 11.32 15.9 11.3 15.89C10.67 15.38 9.74 15.48 9.23 16.12C8.72 16.75 8.83 17.68 9.46 18.19C9.53 18.25 10.88 19.3 13.11 19.73L10.01 22.98C9.44 23.56 9.46 24.5 10.04 25.06C10.33 25.34 10.7 25.47 11.07 25.47C11.45 25.47 11.84 25.32 12.13 25.02L15.01 21.95L18.19 25.04C18.77 25.62 19.7 25.62 20.27 25.04C20.85 24.46 20.85 23.53 20.27 22.96L17 19.71Z" fill="#CACACA" fill-opacity="1.000000" fill-rule="evenodd"/>
	</g>
</svg>
