<svg width="30.000000" height="30.000000" viewBox="0 0 30 30" fill="none" xmlns="http://www.w3.org/2000/svg" xmlns:xlink="http://www.w3.org/1999/xlink">
	<desc>
			Created with Pixso.
	</desc>
	<defs/>
	<path id="Vector" d="M15 0C6.71 0 0 6.71 0 15C0 23.28 6.71 30 15 30C23.28 30 30 23.28 30 15C30 6.71 23.28 0 15 0ZM22.6 16.62C23.3 17.3 24.04 17.94 24.67 18.7C24.95 19.03 25.21 19.37 25.41 19.76C25.69 20.31 25.44 20.92 24.94 20.95L21.87 20.95C21.08 21.02 20.44 20.7 19.91 20.16C19.49 19.72 19.09 19.26 18.68 18.81C18.52 18.63 18.34 18.46 18.13 18.32C17.71 18.05 17.35 18.13 17.11 18.57C16.86 19.02 16.81 19.51 16.78 20.01C16.75 20.73 16.53 20.92 15.8 20.95C14.25 21.03 12.78 20.79 11.41 20.01C10.2 19.32 9.26 18.34 8.45 17.24C6.86 15.09 5.64 12.72 4.55 10.29C4.31 9.75 4.49 9.45 5.09 9.44C6.09 9.42 7.1 9.43 8.1 9.44C8.51 9.45 8.78 9.68 8.93 10.07C9.48 11.4 10.14 12.67 10.97 13.85C11.19 14.16 11.42 14.47 11.74 14.69C12.1 14.94 12.37 14.86 12.54 14.46C12.65 14.21 12.69 13.94 12.72 13.67C12.8 12.74 12.81 11.81 12.67 10.89C12.58 10.31 12.26 9.94 11.68 9.83C11.39 9.77 11.43 9.66 11.57 9.5C11.82 9.21 12.05 9.03 12.52 9.03L15.99 9.03C16.54 9.13 16.66 9.38 16.73 9.93L16.74 13.79C16.73 14 16.84 14.63 17.23 14.77C17.53 14.87 17.73 14.63 17.92 14.43C18.75 13.55 19.34 12.51 19.88 11.43C20.11 10.95 20.31 10.46 20.51 9.97C20.65 9.6 20.88 9.42 21.29 9.43L24.64 9.43C24.74 9.43 24.84 9.43 24.93 9.45C25.5 9.55 25.65 9.79 25.48 10.34C25.2 11.2 24.67 11.92 24.15 12.64C23.59 13.42 22.99 14.16 22.44 14.94C21.93 15.64 21.97 16 22.6 16.62Z" fill="#CACACA" fill-opacity="1.000000" fill-rule="nonzero"/>
</svg>
